# AST/ASF file generated using VICON BodyLanguage
# -----------------------------------------------
:version 1.10
:name VICON
:units
  mass 1.0
  length 0.45
  angle deg
:documentation
   .ast/.asf automatically generated from VICON data using
   VICON BodyBuilder and BodyLanguage model FoxedUp or BRILLIANT.MOD
:root
   order TX TY TZ RX RY RZ
   axis XYZ
   position 0 0 0  
   orientation 0 0 0 
:bonedata
  begin
     id 1 
     name lhipjoint
     direction 0.566809 -0.746272 0.349008 
     length 2.40479 
     axis 0 0 0  XYZ
  end
  begin
     id 2 
     name lfemur
     direction 0.34202 -0.939693 0  
     length 7.1578  
     axis 0 0 20  XYZ
    dof rx ry rz
    limits (-160.0 20.0)
           (-70.0 70.0)
           (-60.0 70.0)
  end
  begin
     id 3 
     name ltibia
     direction 0.34202 -0.939693 0   
     length 7.49137   
     axis 0 0 20   XYZ
    dof rx
    limits (-10.0 170.0)
  end
  begin
     id 4 
     name lfoot
     direction 0.0665746 -0.182912 0.980873   
     length 2.36784   
     axis -90 7.62852e-016 20   XYZ
    dof rx rz
    limits (-45.0 90.0)
           (-70.0 20.0)
  end
  begin
     id 5 
     name ltoes
     direction 1.53601e-011 -4.22058e-011 1   
     length 1.18966   
     axis -90 7.62852e-016 20   XYZ
    dof rx
    limits (-90.0 20.0)
  end
  begin
     id 6 
     name rhipjoint
     direction -0.550236 -0.756381 0.353735   
     length 2.37265  
     axis 0 0 0  XYZ 
  end
  begin
     id 7 
     name rfemur
     direction -0.34202 -0.939693 0   
     length 7.43386   
     axis 0 0 -20   XYZ
    dof rx ry rz
    limits (-160.0 20.0)
           (-70.0 70.0)
           (-70.0 60.0)
  end
  begin
     id 8 
     name rtibia
     direction -0.34202 -0.939693 0   
     length 7.50908   
     axis 0 0 -20   XYZ
    dof rx
    limits (-10.0 170.0)
 end
 begin
     id 9 
     name rfoot
     direction -0.0683029 -0.187661 0.979856   
     length 2.41173  
     axis -90 -7.62852e-016 -20   XYZ
    dof rx rz
    limits (-45.0 90.0)
           (-20.0 70.0)
  end
  begin
     id 10 
     name rtoes
     direction -1.53528e-011 -4.21968e-011 1   
     length 1.21082   
     axis -90 -7.62852e-016 -20   XYZ
    dof rx
    limits (-90.0 20.0)
  end
  begin
     id 11 
     name lowerback
     direction 0.013823 0.995423 -0.0945635   
     length 2.04495   
     axis 0 0 0   XYZ
    dof rx ry rz
    limits (-20.0 45.0)
           (-30.0 30.0)
           (-30.0 30.0)
  end
  begin
     id 12 
     name upperback
     direction 0.0276657 0.9994 -0.020853   
     length 2.05008   
     axis 0 0 0   XYZ
    dof rx ry rz
    limits (-20.0 45.0)
           (-30.0 30.0)
           (-30.0 30.0)
  end
  begin
     id 13 
     name thorax
     direction 0.019782 0.999531 0.0233827   
     length 2.06488   
     axis 0 0 0   XYZ
    dof rx ry rz
    limits (-20.0 45.0)
           (-30.0 30.0)
           (-30.0 30.0)
  end
  begin
     id 14 
     name lowerneck
     direction -0.0308541 0.994709 0.0979874   
     length 1.75553   
     axis 0 0 0   XYZ
    dof rx ry rz
    limits (-20.0 45.0)
           (-30.0 30.0)
           (-30.0 30.0)
  end
  begin
     id 15 
     name upperneck
     direction 0.0588398 0.995804 -0.0700903   
     length 1.76878   
     axis 0 0 0   XYZ
    dof rx ry rz
    limits (-20.0 45.0)
           (-30.0 30.0)
           (-30.0 30.0)
  end
  begin
     id 16
     name head
     direction 0.0209966 0.999159 -0.0352225  
     length 1.77193  
     axis 0 0 0   XYZ
    dof rx ry rz
    limits (-20.0 45.0)
           (-30.0 30.0)
           (-30.0 30.0)
  end
  begin
     id 17 
     name lclavicle
     direction 0.938182 0.335073 -0.0868338  
     length 3.58396  
     axis 0 0 0   XYZ
    dof ry rz
    limits (-20.0 10.0)
           (0.0 20.0)
  end
  begin
     id 18 
     name lhumerus
     direction 1 -4.48971e-011 -1.26313e-017   
     length 4.983   
     axis 180 -30 -90   XYZ
    dof rx ry rz
    limits (-60.0 90.0)
           (-90.0 90.0)
           (-90.0 90.0)
  end
  begin
     id 19
     name lradius
     direction 1 -4.48948e-011 -5.89033e-027   
     length 3.48356   
     axis 180 -30 -90   XYZ
    dof rx
    limits (-10.0 170.0)
  end
  begin
     id 20
     name lwrist
     direction 1 -4.48977e-011 -1.48983e-026   
     length 1.74178   
     axis 9.0955e-015 90 90   XYZ
    dof ry
    limits (-180.0 0.0)
 end
  begin
     id 21 
     name lhand
     direction 1 -4.49046e-011 -2.98066e-026   
     length 0.715259   
     axis 1.90115e-014 90 90   XYZ
    dof rx rz
    limits (-90.0 90.0)
           (-45.0 45.0)
  end
  begin
     id 22 
     name lfingers
     direction 1 -4.48907e-011 -5.95731e-026   
     length 0.576661   
     axis 3.80223e-014 90 90   XYZ
    dof rx
    limits (0.0 90.0)
  end
  begin
     id 23
     name lthumb
     direction 0.707107 -6.34963e-011 0.707107   
     length 0.827973   
     axis -90 45 -3.84942e-014   XYZ
    dof rx rz
    limits (-45.0 45.0)
           (-45.0 45.0)
  end
  begin
     id 24 
     name rclavicle
     direction -0.909637 0.398485 -0.11735   
     length 3.44819  
     axis 0 0 0   XYZ 
    dof ry rz
    limits (-10.0 20.0)
           (-20.0 0.0)
  end
  begin
     id 25 
     name rhumerus
     direction -1 -4.48978e-011 -1.09333e-027  
     length 5.2419   
     axis 180 30 90   XYZ
    dof rx ry rz
    limits (-90.0 60.0)
           (-90.0 90.0)
           (-90.0 90.0)
  end
  begin
     id 26 
     name rradius
     direction -1 -4.48953e-011 -7.61841e-027   
     length 3.44417   
     axis 180 30 90   XYZ
    dof rx
    limits (-10.0 170.0)
  end
  begin
     id 27 
     name rwrist
     direction -1 -4.48977e-011 -1.48983e-026   
     length 1.72209   
     axis 9.0955e-015 -90 -90   XYZ
    dof ry
    limits (-180.0 0.0)
  end
  begin
     id 28
     name rhand
     direction -1 -4.49027e-011 -2.98038e-026   
     length 0.622529   
     axis 1.90115e-014 -90 -90   XYZ
    dof rx rz
    limits (-90.0 90.0)
           (-45.0 45.0)
  end
  begin
     id 29
     name rfingers
     direction -1 -4.48838e-011 -5.95531e-026   
     length 0.501899   
     axis 3.80223e-014 -90 -90   XYZ
    dof rx
    limits (0.0 90.0)
  end
  begin
     id 30
     name rthumb
     direction -0.707107 -6.34937e-011 0.707107   
     length 0.720629   
     axis -90 -45 3.84942e-014   XYZ
    dof rx rz
    limits (-45.0 45.0)
           (-45.0 45.0)
  end
:hierarchy
  begin
    root lhipjoint rhipjoint lowerback
    lhipjoint lfemur
    lfemur ltibia
    ltibia lfoot
    lfoot ltoes
    rhipjoint rfemur
    rfemur rtibia
    rtibia rfoot
    rfoot rtoes
    lowerback upperback
    upperback thorax
    thorax lowerneck lclavicle rclavicle
    lowerneck upperneck
    upperneck head
    lclavicle lhumerus
    lhumerus lradius
    lradius lwrist
    lwrist lhand lthumb
    lhand lfingers
    rclavicle rhumerus
    rhumerus rradius
    rradius rwrist
    rwrist rhand rthumb
    rhand rfingers
  end

#!OML:ASF H:\Terrain\Patient Classification 1\PLAYGROUND\JustinFriday\JustinFriday.ASF
:FULLY-SPECIFIED
:DEGREES
1
root 14.748 17.4792 17.9194 137.567 -74.0161 -130.087
lowerback 8.29686 1.18981 9.09366
upperback 2.13257 2.22591 4.93832
thorax -2.26601 0.962629 -0.171736
lowerneck -2.38003 -8.11351 -9.81878
upperneck 2.09393 -10.6986 6.79887
head 2.10066 -5.33166 3.61817
rclavicle 7.55382e-015 2.10712e-014
rhumerus -26.8694 -11.89 -80.7458
rradius 19.8991
rwrist -11.3087
rhand -18.9678 -27.897
rfingers 7.12502
rthumb 7.33618 -57.7498
lclavicle 7.55382e-015 2.10712e-014
lhumerus -38.6121 20.207 72.4312
lradius 22.1402
lwrist -5.49893
lhand -17.3757 0.352638
lfingers 7.12502
lthumb 8.8728 30.1461
rfemur 2.74649 1.51576 37.8281
rtibia 20.4336
rfoot -21.1192 -6.37054
rtoes 10.3635
lfemur -37.0548 2.5723 -4.95135
ltibia 40.2852
lfoot -11.7724 2.08206
ltoes 10.038
2
root 14.6573 17.4803 17.9304 138.754 -74.0676 -131.222
lowerback 8.27503 1.31819 8.88168
upperback 2.13372 2.3786 4.91954
thorax -2.25122 1.04126 -0.0890172
lowerneck -2.48181 -8.14102 -9.90612
upperneck 2.19169 -10.7269 6.81636
head 2.16196 -5.34537 3.63292
rclavicle -9.83984e-015 -3.49861e-014
rhumerus -27.1526 -13.9598 -79.2771
rradius 19.247
rwrist -7.36234
rhand -22.1373 -27.1398
rfingers 7.12502
rthumb 4.27616 -57.0767
lclavicle -9.83984e-015 -3.49861e-014
lhumerus -39.1608 20.4541 72.1411
lradius 22.1849
lwrist -5.32543
lhand -17.1755 0.13788
lfingers 7.12502
lthumb 9.06601 29.923
rfemur 2.90363 1.66614 37.4229
rtibia 20.5336
rfoot -21.0715 -6.38034
rtoes 10.3656
lfemur -36.8498 2.34578 -5.26043
ltibia 40.3981
lfoot -11.7399 2.38202
ltoes 9.44298
3
root 14.5615 17.4854 17.9509 139.746 -73.9276 -132.203
lowerback 8.34073 1.36268 8.84722
upperback 2.09799 2.4451 4.99741
thorax -2.3259 1.06938 0.00269398
lowerneck -2.37897 -8.03091 -10.0365
upperneck 2.09044 -10.5735 6.63456
head 2.09074 -5.27356 3.60873
rclavicle -1.86858e-014 -1.70955e-014
rhumerus -27.4582 -12.3988 -79.536
rradius 19.5003
rwrist -11.0668
rhand -17.7573 -28.6168
rfingers 7.12502
rthumb 8.50459 -58.4256
lclavicle -1.86858e-014 -1.70955e-014
lhumerus -39.8888 20.9649 71.8131
lradius 22.2184
lwrist -5.35178
lhand -17.2039 -0.0526281
lfingers 7.12502
lthumb 9.03862 29.7337
rfemur 3.16617 1.71294 37.0522
rtibia 20.5326
rfoot -20.9001 -5.72097
rtoes 11.2411
lfemur -36.5872 2.26095 -5.46143
ltibia 40.6043
lfoot -11.6753 2.79972
ltoes 8.67525
4
root 14.4601 17.4902 17.9635 139.689 -74.0893 -132.238
lowerback 8.34372 1.24841 8.7926
upperback 2.093 2.29078 5.00486
thorax -2.34527 0.992747 0.0548805
lowerneck -2.22034 -7.90387 -9.84317
upperneck 1.96775 -10.4109 6.35431
head 1.97301 -5.19576 3.49382
rclavicle -4.67144e-015 2.46493e-014
rhumerus -27.8249 -11.9963 -79.409
rradius 19.4797
rwrist -12.257
rhand -22.2979 -28.9287
rfingers 7.12502
rthumb 4.12112 -58.8685
lclavicle -4.67144e-015 2.46493e-014
lhumerus -40.5038 21.2397 71.3663
lradius 22.2694
lwrist -4.7597
lhand -16.5557 -0.517042
lfingers 7.12502
lthumb 9.66403 29.2413
rfemur 3.53285 1.5494 36.7835
rtibia 20.6289
rfoot -20.8191 -5.42845
rtoes 11.736
lfemur -36.2721 2.08326 -5.72014
ltibia 40.7311
lfoot -11.3281 2.9369
ltoes 8.54419
5
root 14.3583 17.4915 17.9592 139.466 -73.9655 -132.132
lowerback 8.29162 1.26195 8.85493
upperback 2.1771 2.29572 5.00939
thorax -2.22492 0.999169 0.0272805
lowerneck -2.2287 -7.85362 -9.4705
upperneck 1.93007 -10.3475 6.16455
head 1.91839 -5.16271 3.36391
rclavicle -3.34952e-014 1.98785e-014
rhumerus -28.1451 -13.3172 -78.5816
rradius 19.1731
rwrist -9.98552
rhand -15.785 -28.6296
rfingers 7.12502
rthumb 10.4075 -58.352
lclavicle -3.34952e-014 1.98785e-014
lhumerus -40.8689 21.1462 71.0248
lradius 22.3547
lwrist -3.99906
lhand -15.8428 -0.657902
lfingers 7.12502
lthumb 10.3518 29.0673
rfemur 3.96257 1.84902 36.897
rtibia 20.7224
rfoot -20.7105 -5.58615
rtoes 11.313
lfemur -35.9203 2.18036 -5.69647
ltibia 40.8787
lfoot -10.9663 2.90406
ltoes 7.93946
6
root 14.2578 17.5085 17.9782 141.656 -73.9601 -134.11
lowerback 8.08095 1.41106 8.74563
upperback 2.10035 2.47405 4.80876
thorax -2.17365 1.09489 -0.134044
lowerneck -2.27024 -7.85868 -9.28899
upperneck 1.90774 -10.3513 6.03231
head 1.8976 -5.16391 3.28403
rclavicle 5.36719e-015 4.6118e-014
rhumerus -28.5397 -16.1364 -76.8866
rradius 18.4751
rwrist -4.69286
rhand -30.4886 -33.6226
rfingers 7.12502
rthumb -3.7893 -63.5687
lclavicle 5.36719e-015 4.6118e-014
lhumerus -41.3001 21.2335 70.7474
lradius 22.4311
lwrist -3.78728
lhand -15.7703 -0.527942
lfingers 7.12502
lthumb 10.4217 29.1938
rfemur 3.92741 2.08677 36.2169
rtibia 20.8654
rfoot -20.4601 -5.21746
rtoes 10.4819
lfemur -35.869 2.50944 -6.36562
ltibia 40.977
lfoot -10.5187 3.20225
ltoes 7.45357
7
root 14.1549 17.5012 17.9822 141.369 -73.7013 -134.008
lowerback 8.28307 1.46556 8.9285
upperback 2.10312 2.58103 4.88629
thorax -2.27077 1.14016 -0.168734
lowerneck -2.31084 -7.8809 -9.08118
upperneck 1.97151 -10.3796 5.83601
head 1.90102 -5.17864 3.17535
rclavicle -2.26615e-014 -3.97569e-016
rhumerus -28.8231 -16.4074 -76.4503
rradius 18.1437
rwrist -4.55236
rhand -18.3307 -27.09
rfingers 7.12502
rthumb 7.95116 -56.9204
lclavicle -2.26615e-014 -3.97569e-016
lhumerus -41.8249 21.3574 70.5033
lradius 22.6285
lwrist -3.43911
lhand -15.4009 -0.634738
lfingers 7.12502
lthumb 10.7781 29.0687
rfemur 4.43988 2.53963 36.4344
rtibia 21.0011
rfoot -20.2412 -5.62577
rtoes 9.17689
lfemur -35.4118 2.81152 -6.30919
ltibia 41.1434
lfoot -10.2079 3.25828
ltoes 8.90314
8
root 14.0526 17.4923 17.9808 141.077 -73.4365 -133.982
lowerback 8.46719 1.53249 9.0077
upperback 2.17022 2.68684 4.98738
thorax -2.29624 1.1882 -0.120826
lowerneck -2.32353 -7.82976 -9.06912
upperneck 2.03233 -10.3128 5.85069
head 1.91832 -5.14534 3.18005
rclavicle 1.71949e-014 1.19271e-014
rhumerus -29.0309 -14.4729 -77.2203
rradius 18.5001
rwrist -9.29555
rhand -22.6637 -28.5099
rfingers 7.12502
rthumb 3.76783 -58.4563
lclavicle 1.71949e-014 1.19271e-014
lhumerus -42.2754 21.3166 70.4328
lradius 22.9451
lwrist -2.98838
lhand -14.8733 -0.659496
lfingers 7.12502
lthumb 11.287 29.0168
rfemur 5.06764 2.97121 36.6695
rtibia 21.1405
rfoot -19.9554 -6.04578
rtoes 7.80076
lfemur -34.8318 3.10307 -6.21467
ltibia 41.319
lfoot -10.27 3.0519
ltoes 10.8739
9
root 13.9521 17.495 17.978 140.906 -73.2701 -133.994
lowerback 8.59086 1.57471 8.97961
upperback 2.19282 2.74901 5.15402
thorax -2.34656 1.21316 0.0591866
lowerneck -2.24344 -7.70606 -9.43821
upperneck 1.97801 -10.1427 5.9162
head 1.90031 -5.06379 3.28231
rclavicle 3.4191e-014 1.59028e-014
rhumerus -29.4116 -14.585 -76.6819
rradius 18.5283
rwrist -9.60059
rhand -26.6957 -28.2024
rfingers 7.12502
rthumb -0.126211 -58.1821
lclavicle 3.4191e-014 1.59028e-014
lhumerus -42.7908 21.4969 70.4515
lradius 23.1687
lwrist -2.76325
lhand -14.6656 -0.451532
lfingers 7.12502
lthumb 11.4873 29.2137
rfemur 5.52954 3.35256 36.7957
rtibia 21.3277
rfoot -19.6209 -6.25448
rtoes 7.53087
lfemur -34.3645 3.52017 -6.23369
ltibia 41.5137
lfoot -10.5815 2.50539
ltoes 10.8609
10
root 13.8381 17.4997 17.9872 140.969 -73.3741 -134.472
lowerback 8.85396 1.53884 8.88027
upperback 2.24111 2.72044 5.17358
thorax -2.44999 1.19555 0.129677
lowerneck -2.26402 -7.65229 -9.53184
upperneck 2.08158 -10.0658 5.8309
head 1.93217 -5.02819 3.27181
rclavicle -3.40916e-014 -5.68524e-014
rhumerus -29.8959 -16.2833 -75.321
rradius 18.1738
rwrist -6.23958
rhand -27.8174 -27.2408
rfingers 7.12502
rthumb -1.20958 -57.2172
lclavicle -3.40916e-014 -5.68524e-014
lhumerus -43.334 21.7978 70.2525
lradius 23.314
lwrist -2.59635
lhand -14.3069 -0.560817
lfingers 7.12502
lthumb 11.8331 29.0849
rfemur 6.12087 3.60463 36.567
rtibia 21.6665
rfoot -19.4193 -6.31122
rtoes 8.14553
lfemur -33.5753 3.45855 -6.55734
ltibia 41.643
lfoot -11.127 2.39708
ltoes 9.79852
11
root 13.7221 17.5122 18.0025 142.415 -73.8099 -135.983
lowerback 8.68371 1.53747 8.49635
upperback 2.20114 2.68054 4.94068
thorax -2.40867 1.18741 0.105
lowerneck -2.43462 -7.65605 -9.38351
upperneck 2.35497 -10.0693 5.85987
head 2.04682 -5.0282 3.24361
rclavicle 7.95139e-016 5.96354e-015
rhumerus -30.3715 -17.1934 -74.6645
rradius 18.147
rwrist -4.9242
rhand -27.9496 -27.2432
rfingers 7.12502
rthumb -1.33722 -57.2188
lclavicle 7.95139e-016 5.96354e-015
lhumerus -43.6146 21.7219 70.1014
lradius 23.4709
lwrist -2.27041
lhand -14.0469 -0.586193
lfingers 7.12502
lthumb 12.0839 29.0449
rfemur 6.2385 3.68296 35.786
rtibia 22.1056
rfoot -19.0649 -6.48267
rtoes 7.14715
lfemur -33.141 3.2971 -7.41122
ltibia 41.699
lfoot -11.4442 2.59776
ltoes 9.44491
12
root 13.6077 17.5235 18.0193 143.322 -74.0153 -136.872
lowerback 8.39183 1.50651 8.55459
upperback 2.22792 2.6112 4.70226
thorax -2.20856 1.16579 -0.159809
lowerneck -2.71848 -7.55138 -9.30132
upperneck 2.60748 -9.91679 5.92143
head 2.16899 -4.94845 3.24317
rclavicle -1.51076e-014 9.14409e-015
rhumerus -30.6858 -17.6223 -74.5078
rradius 18.253
rwrist -4.69187
rhand -28.0521 -27.4091
rfingers 7.12502
rthumb -1.43624 -57.384
lclavicle -1.51076e-014 9.14409e-015
lhumerus -43.6738 21.6535 69.9863
lradius 23.5467
lwrist -2.22159
lhand -13.9896 -0.608602
lfingers 7.12502
lthumb 12.1391 29.0192
rfemur 6.25412 3.73303 35.3079
rtibia 22.6387
rfoot -18.6032 -6.8191
rtoes 5.05653
lfemur -32.7638 3.47609 -7.9829
ltibia 41.7209
lfoot -11.6508 2.48278
ltoes 9.76501
13
root 13.4983 17.529 18.024 143.327 -73.8978 -137.023
lowerback 8.33716 1.49807 8.88507
upperback 2.27966 2.61387 4.53298
thorax -2.09933 1.17234 -0.514866
lowerneck -2.89257 -7.41267 -9.10228
upperneck 2.7871 -9.72565 5.82959
head 2.22603 -4.85145 3.17663
rclavicle -3.88624e-014 1.23246e-014
rhumerus -31.0328 -18.4952 -74.1921
rradius 18.2585
rwrist -3.52892
rhand -27.554 -27.4017
rfingers 7.12502
rthumb -0.95512 -57.3793
lclavicle -3.88624e-014 1.23246e-014
lhumerus -43.7678 21.828 69.5977
lradius 23.5021
lwrist -2.59032
lhand -13.6668 -1.04986
lfingers 7.12502
lthumb 12.4504 28.5593
rfemur 6.41571 3.88061 35.2721
rtibia 23.2843
rfoot -18.3176 -6.6928
rtoes 4.6728
lfemur -32.1845 3.81289 -8.05987
ltibia 41.756
lfoot -11.9823 2.25172
ltoes 10.0334
